<?xml version="1.0" standalone="no"?>
<!DOCTYPE svg PUBLIC "-//W3C//DTD SVG 20010904//EN"
 "http://www.w3.org/TR/2001/REC-SVG-20010904/DTD/svg10.dtd">
<svg version="1.0" xmlns="http://www.w3.org/2000/svg"
 width="18px" height="18px" viewBox="0 0 24.000000 24.000000"
 preserveAspectRatio="xMidYMid meet">

<g transform="translate(0.000000,24.000000) scale(0.100000,-0.100000)"
fill="#000000" stroke="none">
<path d="M56 130 c-31 -44 -56 -84 -56 -90 0 -5 11 -10 25 -10 17 0 33 12 55
45 17 25 33 45 36 45 3 0 -9 -20 -26 -45 l-31 -45 91 0 c56 0 90 4 90 10 0 6
-19 37 -41 70 l-42 59 -19 -22 c-19 -22 -19 -22 -2 6 13 22 14 30 4 42 -7 8
-16 15 -20 15 -5 0 -33 -36 -64 -80z"/>
</g>
</svg>
