<?xml version="1.0" encoding="UTF-8"?>
<svg width="909px" height="213px" viewBox="0 0 909 213" version="1.1" xmlns="http://www.w3.org/2000/svg" xmlns:xlink="http://www.w3.org/1999/xlink">
    <!-- Generator: Sketch 50.2 (55047) - http://www.bohemiancoding.com/sketch -->
    <title>Logo</title>
    <desc>Created with Sketch.</desc>
    <defs></defs>
    <g id="Page-1" stroke="none" stroke-width="1" fill="none" fill-rule="evenodd">
        <g id="Logo" transform="translate(0.000000, -19.000000)">
            <text id="Premium-Pack" fill="#000000" font-family="OpenSans-Regular, Open Sans" font-size="100" font-weight="normal">
                <tspan x="240" y="107">Premium Pack</tspan>
            </text>
            <text id="Industry" fill="#1BAD58" font-family="OpenSans-Regular, Open Sans" font-size="100" font-weight="normal">
                <tspan x="240" y="207">Industry</tspan>
            </text>
            <g id="logo" transform="translate(0.000000, 19.000000)" fill-rule="nonzero">
                <rect id="Rectangle-Copy" fill="#000000" transform="translate(100.000000, 10.000000) rotate(90.000000) translate(-100.000000, -10.000000) " x="90" y="-90" width="20" height="200"></rect>
                <polygon id="Rectangle" fill="#1BAD58" points="190 10.0019531 200 0 200 190 180 190 180 20.0341797"></polygon>
                <rect id="Rectangle-Copy-3" fill="#000000" x="0" y="40" width="20" height="160"></rect>
                <polygon id="Rectangle-Copy-2" fill="#1BAD58" transform="translate(100.000000, 190.000000) rotate(90.000000) translate(-100.000000, -190.000000) " points="90 90 110 90 110 290 100 280 90 269.993164"></polygon>
                <rect id="Rectangle-Copy-4" fill="#000000" transform="translate(80.000000, 50.000000) rotate(90.000000) translate(-80.000000, -50.000000) " x="70" y="-30" width="20" height="160"></rect>
                <polygon id="Rectangle-Copy-5" fill="#1BAD58" points="150 49.7188721 160 40 160 160 140 160 140 60.0739746"></polygon>
                <rect id="Rectangle-Copy-7" fill="#000000" x="40" y="80" width="20" height="80"></rect>
                <polygon id="Rectangle-Copy-6" fill="#1BAD58" transform="translate(100.000000, 150.000000) rotate(90.000000) translate(-100.000000, -150.000000) " points="90 90 110 90 110 210 100 200 90 190.025879"></polygon>
                <rect id="Rectangle-Copy-8" fill="#000000" transform="translate(80.000000, 90.000000) rotate(90.000000) translate(-80.000000, -90.000000) " x="70" y="50" width="20" height="80"></rect>
                <rect id="Rectangle-Copy-9" fill="#000000" x="100" y="80" width="20" height="40"></rect>
            </g>
        </g>
    </g>
</svg>